<?xml version="1.0" encoding="UTF-8" standalone="no"?>
<!-- Generator: Adobe Illustrator 15.0.0, SVG Export Plug-In . SVG Version: 6.00 Build 0)  -->

<svg
   xmlns:dc="http://purl.org/dc/elements/1.1/"
   xmlns:cc="http://creativecommons.org/ns#"
   xmlns:rdf="http://www.w3.org/1999/02/22-rdf-syntax-ns#"
   xmlns:svg="http://www.w3.org/2000/svg"
   xmlns="http://www.w3.org/2000/svg"
   xmlns:sodipodi="http://sodipodi.sourceforge.net/DTD/sodipodi-0.dtd"
   xmlns:inkscape="http://www.inkscape.org/namespaces/inkscape"
   version="1.1"
   id="svg2"
   sodipodi:docname="Drupal_Shiny_Icon.svg"
   inkscape:version="0.48.3.1 r9886"
   sodipodi:version="0.32"
   inkscape:output_extension="org.inkscape.output.svg.inkscape"
   x="0px"
   y="0px"
   width="256px"
   height="256px"
   viewBox="0 0 256 256"
   enable-background="new 0 0 256 256"
   xml:space="preserve"><metadata
   id="metadata39"><rdf:RDF><cc:Work
       rdf:about=""><dc:format>image/svg+xml</dc:format><dc:type
         rdf:resource="http://purl.org/dc/dcmitype/StillImage" /></cc:Work></rdf:RDF></metadata><defs
   id="defs37"><filter
     color-interpolation-filters="sRGB"
     id="filter3288"
     inkscape:label="Drop shadow"
     width="1.5"
     height="1.5"
     x="-0.25"
     y="-0.25"><feGaussianBlur
       id="feGaussianBlur3290"
       in="SourceAlpha"
       stdDeviation="1.5"
       result="blur" /><feColorMatrix
       id="feColorMatrix3292"
       result="bluralpha"
       type="matrix"
       values="1 0 0 0 0 0 1 0 0 0 0 0 1 0 0 0 0 0 0.5 0 " /><feOffset
       id="feOffset3294"
       in="bluralpha"
       dx="1"
       dy="1"
       result="offsetBlur" /><feMerge
       id="feMerge3296"><feMergeNode
         id="feMergeNode3298"
         in="offsetBlur" /><feMergeNode
         id="feMergeNode3300"
         in="SourceGraphic" /></feMerge></filter><clipPath
     clipPathUnits="userSpaceOnUse"
     id="clipPath3871"><path
       stroke-miterlimit="10"
       d="m 9.496,115.401 v 94.605 c 0,19.6 15.888,35.486 35.486,35.486 h 164.034 c 19.604,0 35.487,-15.889 37.487,-34.819 v -95.952"
       id="path3873"
       inkscape:connector-curvature="0"
       style="fill:none;stroke:#00609c;stroke-width:2;stroke-miterlimit:10" /></clipPath></defs><sodipodi:namedview
   pagecolor="#ffffff"
   bordercolor="#666666"
   borderopacity="1"
   objecttolerance="10"
   gridtolerance="10"
   guidetolerance="10"
   inkscape:pageopacity="0"
   inkscape:pageshadow="2"
   inkscape:window-width="1311"
   inkscape:window-height="744"
   id="namedview35"
   showgrid="false"
   inkscape:zoom="0.921875"
   inkscape:cx="153.36158"
   inkscape:cy="129.38693"
   inkscape:window-x="49"
   inkscape:window-y="24"
   inkscape:window-maximized="1"
   inkscape:current-layer="svg2" />
<title
   id="title2910">facebook web</title>
<path
   id="rect1942_1_"
   inkscape:export-filename="C:\Documents and Settings\Molumen\Desktop\path3511111.png"
   inkscape:export-xdpi="7.7063322"
   inkscape:export-ydpi="7.7063322"
   d="  M209.018,10.505H44.983c-19.599,0-35.487,15.888-35.487,35.487v164.015c0,19.599,15.888,35.486,35.487,35.486h164.033  c19.604,0,35.487-15.888,37.487-34.819V46.66C244.504,26.394,228.615,10.505,209.018,10.505z"
   style="fill:#78c132;fill-opacity:1"
   fill="#0073BA" />
<linearGradient
   id="SVGID_1_"
   gradientUnits="userSpaceOnUse"
   x1="76.8599"
   y1="-1511.1123"
   x2="76.8599"
   y2="-1638.7413"
   gradientTransform="matrix(1,0,0,-1,51.140099,-1499.9453)">
	<stop
   offset="0"
   style="stop-color:#FFFFFF;stop-opacity:0.85"
   id="stop6" />
	<stop
   offset="0.66"
   style="stop-color:#FFFFFF;stop-opacity:0"
   id="stop8" />
</linearGradient>
<path
   style="fill:none;stroke:#003e67;stroke-width:6.99999584000000041;stroke-linecap:butt;stroke-linejoin:bevel;stroke-miterlimit:4;stroke-opacity:1;stroke-dasharray:none;filter:url(#filter3288)"
   d="m 375.64722,615.53346 -27.57041,-36.233 27.57041,0 0,26.15254 -53.15734,0.0292 0,-36.48895 24.04751,0.003"
   id="path2993"
   inkscape:connector-curvature="0"
   transform="matrix(2.5137147,0,0,3.2410029,-748.374,-1783.934)"
   sodipodi:nodetypes="ccccccc" /><path
   d="M 209.018,10.505 H 44.982999 c -19.599,0 -35.4869998,15.889 -35.4869998,35.487 v 69.409 C 45.825999,130.152 85.541999,138.297 127.166,138.297 c 42.263,0 82.558,-8.395 119.336,-23.576 V 46.66 C 244.504,26.394 228.615,10.505 209.018,10.505 z"
   id="path10"
   style="fill:url(#SVGID_1_)"
   inkscape:connector-curvature="0"
   clip-path="none" />
<path
   stroke-miterlimit="10"
   d="M246.503,114.721V46.66  c-1.999-20.266-17.888-36.155-37.485-36.155H44.982c-19.599,0-35.486,15.889-35.486,35.487v69.409"
   id="path12"
   stroke-width="2"
   stroke="#0073BA"
   fill="none"
   clip-path="url(#clipPath3871)" />

<g
   id="g16"
   transform="translate(-3.7288136e-6,1.8644064e-7)">
	
		<linearGradient
   id="SVGID_2_"
   gradientUnits="userSpaceOnUse"
   x1="76.859901"
   y1="-1637.9463"
   x2="76.859901"
   y2="-1745.4579"
   gradientTransform="matrix(1,0,0,-1,51.1401,-1499.9453)">
		<stop
   offset="0"
   style="stop-color:#000000;stop-opacity:0.15"
   id="stop19" />
		<stop
   offset="0.6626"
   style="stop-color:#000000;stop-opacity:0"
   id="stop21" />
	</linearGradient>
	<path
   d="m 9.496,115.401 v 94.605 c 0,19.6 15.888,35.486 35.487,35.486 h 164.033 c 19.604,0 35.488,-15.889 37.488,-34.819 V 114.721 C 209.725,129.902 169.43,138.297 127.167,138.297 85.542,138.298 45.825,130.152 9.496,115.401 z"
   id="path23"
   style="fill:url(#SVGID_2_)"
   inkscape:connector-curvature="0" />
</g>
<g
   id="g25">
	<g
   id="g27">
		<g
   id="g29">
			<g
   id="g31">
				
			</g>
		</g>
	</g>
</g>
</svg>